<svg width="47" height="48" viewBox="0 0 47 48" fill="none" xmlns="http://www.w3.org/2000/svg">
<path fill-rule="evenodd" clip-rule="evenodd" d="M0.390382 41.2123C0.140421 40.9623 0 40.6232 0 40.2697C0 39.9161 0.140421 39.577 0.390382 39.327L11.7024 28.0123C11.9524 27.7624 12.2915 27.6219 12.645 27.6219C12.9986 27.6219 13.3377 27.7624 13.5877 28.0123L19.2464 33.671C19.4963 33.921 19.6368 34.2601 19.6368 34.6137C19.6368 34.9672 19.4963 35.3063 19.2464 35.5563L7.93172 46.871C7.68168 47.121 7.3426 47.2614 6.98905 47.2614C6.6355 47.2614 6.29642 47.121 6.04638 46.871L0.390382 41.2123ZM3.21705 40.271L6.98771 44.0417L16.417 34.6123L12.6464 30.8417L3.21705 40.271Z" fill="#262522"/>
<path fill-rule="evenodd" clip-rule="evenodd" d="M11.7019 29.895C11.4519 29.6449 11.3115 29.3059 11.3115 28.9523C11.3115 28.5987 11.4519 28.2597 11.7019 28.0096L38.5419 1.16963C39.0425 0.669711 39.6668 0.311507 40.351 0.131556C41.0352 -0.0483954 41.7549 -0.0436559 42.4367 0.145292C43.1185 0.33424 43.7379 0.700635 44.2319 1.20711C44.7259 1.71358 45.0767 2.34201 45.2486 3.0283L45.6806 4.7563C46.4061 7.65994 46.3674 10.702 45.5683 13.5862C44.7692 16.4705 43.2369 19.0987 41.1206 21.215L24.9019 37.4363C24.5304 37.808 24.0894 38.1029 23.6039 38.3041C23.1184 38.5052 22.5981 38.6088 22.0726 38.6088C21.5471 38.6088 21.0267 38.5052 20.5412 38.3041C20.0558 38.1029 19.6147 37.808 19.2432 37.4363L11.7019 29.895ZM14.5286 28.951L21.1286 35.551C21.3786 35.8009 21.7177 35.9414 22.0712 35.9414C22.4248 35.9414 22.7639 35.8009 23.0139 35.551L39.2352 19.3296C41.0263 17.5388 42.323 15.3147 42.9992 12.8739C43.6754 10.4331 43.7081 7.85879 43.0939 5.40163L42.6619 3.6763C42.6048 3.44757 42.488 3.23808 42.3235 3.06919C42.159 2.9003 41.9527 2.77804 41.7255 2.71488C41.4984 2.65173 41.2585 2.64993 41.0305 2.70967C40.8024 2.76941 40.5942 2.88856 40.4272 3.05497L14.5286 28.951Z" fill="#262522"/>
</svg>
